<svg id="Camada_1" data-name="Camada 1" xmlns="http://www.w3.org/2000/svg" viewBox="0 0 705 473"><defs><style>.cls-1{fill:#152451;}.cls-2{fill:#008dcd;}</style></defs><title>logo-vertical-color</title><path class="cls-1" d="M137.18,378.93c-9.56,11.92-21.49,18-35.46,18h-.48c-11.62,0-21.29-4.19-28.76-12.45s-11.23-18.93-11.23-32v-2.26c0-13.15,3.65-24,10.84-32.23s16.58-12.28,28.1-12.28h.48c14.37.07,26.49,6,36,17.57l.41.5,9.37-9.8-.32-.39a56.46,56.46,0,0,0-19.84-15.37,59.12,59.12,0,0,0-24.92-5.43h-1.21c-16,0-29,5.34-38.64,15.86S47,333.3,47,350.5v1.56c0,17.5,5.1,31.64,15.15,42.05s23.56,15.78,40.24,15.78c17.88-.08,32.78-7.27,44.28-21.35l.32-.39-9.38-9.72Z"/><path class="cls-1" d="M198,316.71h-.16a32.51,32.51,0,0,0-27.32,14.57V318.81H156.22v89H170.5V364.54c0-10.68,2.55-19.27,7.57-25.53s12.09-9.31,21-9.31h2.57V316.9l-.52,0C200.11,316.79,199,316.71,198,316.71Z"/><path class="cls-1" d="M246.16,316.71h-1c-12.88,0-23.41,4.36-31.28,13s-11.85,19.7-11.85,33v1.25c0,13.29,4,24.39,11.85,33s18.4,13,31.28,13h1c12.93,0,23.48-4.37,31.35-13s11.77-19.64,11.77-33v-1.25c0-13.35-4-24.45-11.77-33S259.09,316.71,246.16,316.71Zm0,80.18h-1c-8.6,0-15.6-3-20.82-9s-8-14.12-8-24.27V363c0-10.27,2.63-18.24,8-24.35,5.24-5.92,12.24-8.93,20.82-8.93h1c8.55,0,15.58,3,20.89,8.93S275,352.88,275,363v.63c0,10.12-2.67,18.29-7.95,24.27S254.73,396.89,246.16,396.89Z"/><path class="cls-1" d="M366.5,325.41c-5.66-5.78-13.82-8.7-24.24-8.7h-.32c-11.48,0-21.86,5.09-28.12,13.7v-11.6H299.54v89h14.28V363c0-10,2.49-18.13,7.4-24.21s11.36-9.07,19.44-9.07H341c13.31,0,19.79,6.7,19.79,20.49v57.59h14.28V350.19C375.05,339.53,372.17,331.19,366.5,325.41Z"/><path class="cls-2" d="M425.62,316.71h-.16a52.43,52.43,0,0,0-20.66,4.1,46.51,46.51,0,0,0-16.14,10.9l-.37.39,8.8,9.32.41-.43a37.44,37.44,0,0,1,12-8,35.91,35.91,0,0,1,14.68-3.3h.73c7.36,0,12.87,1.76,16.35,5.23,3.18,3.16,4.79,7.85,4.79,13.94v3.48c-21.13,0-36.28,2.39-46.29,7.16-10.27,4.89-15.26,12.35-15.26,22.82,0,8.19,2.87,14.9,8.52,19.92s13.05,7.64,22.1,7.64h.32a38,38,0,0,0,18.71-4.68,33.57,33.57,0,0,0,11.9-10.69v13.26h14.28v-57C460.33,328.5,448.33,316.71,425.62,316.71ZM410,369.21c7.57-2.92,19.68-4.45,36-4.56-.19,9.14-3.07,16.88-8.58,23-5.68,6.23-12.73,9.25-21.54,9.25h-.16c-10.47,0-17-5.34-17-13.94C398.78,376.67,402.46,372.17,410,369.21Z"/><path class="cls-2" d="M518.12,316.71h-1a41.72,41.72,0,0,0-18.2,4.11,32.14,32.14,0,0,0-12.41,10v-12H472.27V444.52h14.28V395.78A32.1,32.1,0,0,0,499,405.69a40.77,40.77,0,0,0,18.2,4.2h1c12.14,0,22.13-4.37,29.68-13s11.28-19.64,11.28-33v-1.25c0-13.34-3.79-24.44-11.28-33S530.26,316.71,518.12,316.71ZM544.8,363v.63c0,10.12-2.67,18.29-7.95,24.27s-12.16,9-20.65,9h-1c-8.44,0-15.36-3-20.58-9s-8-14.12-8-24.27V363c0-10.1,2.68-18.29,7.95-24.35s12.18-8.93,20.66-8.93h1c8.47,0,15.42,3,20.65,8.93S544.8,352.88,544.8,363Z"/><path class="cls-2" d="M645.75,329.69c-7.56-8.61-17.54-13-29.68-13h-1a41.69,41.69,0,0,0-18.2,4.11,32,32,0,0,0-12.41,10v-12H570.22V444.52H584.5V395.78a32.14,32.14,0,0,0,12.4,9.91,40.81,40.81,0,0,0,18.21,4.2h1c12.14,0,22.12-4.37,29.68-13s11.28-19.64,11.28-33v-1.25C657,349.33,653.23,338.23,645.75,329.69Zm-3,33.29v.63c0,10.12-2.68,18.29-8,24.27s-12.15,9-20.65,9h-1c-8.44,0-15.36-3-20.57-9s-8-14.12-8-24.27V363c0-10.1,2.67-18.29,8-24.35s12.18-8.93,20.65-8.93h1c8.48,0,15.42,3,20.65,8.93S642.75,352.88,642.75,363Z"/><path class="cls-2" d="M291.53,188.38v33.86a2,2,0,0,0,1,1.71L310,233.57l12.23,7.25a2,2,0,0,0,3-1.69V205.36a2,2,0,0,0-1-1.7l-29.72-17A2,2,0,0,0,291.53,188.38Z"/><path class="cls-2" d="M347.62,168.06l-17.39-9.86a2,2,0,0,0-1.92,0l-17,9.45L297,175.81a2,2,0,0,0,0,3.38l30.8,18.31a2,2,0,0,0,2,0l17.61-10,13.66-7.61a2,2,0,0,0,.09-3.37Z"/><path class="cls-2" d="M366.67,187.86a2,2,0,0,0-2.92-1.71l-12.92,7.23-17.5,10.26a2,2,0,0,0-1,1.69v34.51a2,2,0,0,0,2.95,1.69l13.53-7.93L365.68,224a2,2,0,0,0,1-1.7Z"/><path class="cls-1" d="M463.39,136.9a5.92,5.92,0,0,1-3-4.44C457,104.89,433.32,83,405.13,83a55.46,55.46,0,0,0-24.86,5.63,6,6,0,0,1-7.77-2.48c-11.59-20.09-33.76-32.67-58.69-32.67-36.73,0-68.08,28.07-67.5,64.94V125a7.79,7.79,0,0,1-3.89,5.3c-17,8-26.2,27.48-26.2,46.69a46.88,46.88,0,0,0,48,47h7V212.66h-7A35.64,35.64,0,0,1,228,177c0-17.8,9.52-34.68,24.91-38.1a6.08,6.08,0,0,0,4.7-5.72V118.42c-.09-30.2,25.4-53.13,56.18-53.13,25.21,0,46.39,14.76,53.23,37.08a5.91,5.91,0,0,0,9.59,2.68c7.72-6.9,17-10.24,28.5-10.24,23.79,0,44.1,20.24,44.1,44.28a5.89,5.89,0,0,0,3.78,5.44c13.65,5.29,23,17.22,23,32.47,0,20.15-14.28,35.88-34.32,35.66H386V224h55.65c26.38.72,46.12-21,46.12-47C487.78,159.34,477.73,144.87,463.39,136.9Z"/></svg>